<svg width="31" height="31" viewBox="0 0 31 31" fill="none" xmlns="http://www.w3.org/2000/svg">
<rect width="31" height="31" rx="5" fill="#78A431"/>
<path d="M19.3475 10.8504L11.3655 14.1508C11.0292 14.2899 10.8041 14.6017 10.778 14.9647C10.7519 15.3276 10.93 15.6685 11.2429 15.8543L13.5306 17.1377C13.8807 16.7875 16.5823 14.8628 16.5823 14.8628C16.5823 14.8628 14.6576 17.5644 14.3075 17.9145L15.5908 20.2022C15.7766 20.5151 16.1175 20.6933 16.4804 20.6671C16.8441 20.641 17.1555 20.4153 17.2943 20.0796L20.5948 12.0976C20.745 11.7341 20.6656 11.3356 20.3876 11.0576C20.1095 10.7795 19.711 10.7001 19.3475 10.8504Z" fill="white"/>
</svg>
